<svg id="Layer_1" data-name="Layer 1" xmlns="http://www.w3.org/2000/svg" viewBox="0 0 511.12 493"><defs><style>.cls-1{fill:#fff;}.cls-2{fill:none;stroke:#000;stroke-miterlimit:10;stroke-width:8px;}</style></defs><title>face</title><path class="cls-1" d="M47.47,347.61c-23.48,0-42.58-30.13-42.58-67.17S24,213.27,47.47,213.27,90,243.4,90,280.44,70.95,347.61,47.47,347.61Z" transform="translate(-0.88 -10)"/><path d="M47.47,217.27c9.65,0,19,6.12,26.25,17.23C81.67,246.65,86,263,86,280.44s-4.38,33.79-12.34,45.94c-7.27,11.11-16.59,17.23-26.25,17.23s-19-6.12-26.25-17.23c-8-12.15-12.34-28.47-12.34-45.94s4.38-33.79,12.34-45.94c7.27-11.11,16.59-17.23,26.25-17.23m0-8C21.74,209.27.88,241.13.88,280.44s20.86,71.17,46.58,71.17S94,319.74,94,280.44s-20.86-71.17-46.58-71.17Z" transform="translate(-0.88 -10)"/><path class="cls-1" d="M465.42,350.19c-23.48,0-42.58-30.13-42.58-67.17s19.1-67.17,42.58-67.17S508,246,508,283,488.9,350.19,465.42,350.19Z" transform="translate(-0.88 -10)"/><path d="M465.42,219.86c9.65,0,19,6.12,26.25,17.23,8,12.15,12.34,28.47,12.34,45.94s-4.38,33.79-12.34,45.94c-7.27,11.11-16.59,17.23-26.25,17.23s-19-6.12-26.25-17.23c-8-12.15-12.34-28.47-12.34-45.94s4.38-33.79,12.34-45.94c7.27-11.11,16.59-17.23,26.25-17.23m0-8c-25.73,0-46.58,31.86-46.58,71.17s20.86,71.17,46.58,71.17S512,322.33,512,283s-20.86-71.17-46.58-71.17Z" transform="translate(-0.88 -10)"/><path class="cls-1" d="M256.44,499c-106.61,0-196.92-35.6-205.59-81.06l-.06-.31-.11-.29a8.62,8.62,0,0,1-.52-2.92V130a8.64,8.64,0,0,1,.24-2l.16-.67-.07-.69a55.68,55.68,0,0,1-.33-6c0-28,21.11-54.57,59.45-74.75,39.15-20.62,91.29-32,146.82-32S364.11,25.35,403.26,46c38.34,20.19,59.45,46.73,59.45,74.75a55.53,55.53,0,0,1-.33,5.95l-.08.69.16.67a8.58,8.58,0,0,1,.25,2V414.42a8.65,8.65,0,0,1-.52,2.92l-.11.29-.06.31C453.36,463.4,363.05,499,256.44,499Z" transform="translate(-0.88 -10)"/><path d="M256.44,18c54.89,0,106.37,11.19,145,31.51C419.73,59.16,434,70.31,444,82.63s14.76,25,14.76,38.09a51.72,51.72,0,0,1-.31,5.52l-.15,1.38.32,1.35a4.55,4.55,0,0,1,.13,1.07V414.42a4.64,4.64,0,0,1-.28,1.57l-.21.59-.12.61c-1.87,9.79-8.09,19.42-18.48,28.59-10.75,9.49-25.38,18-43.49,25.35-38,15.39-87.62,23.86-139.69,23.86s-101.67-8.47-139.69-23.86C98.65,463.81,84,455.28,73.27,445.79c-10.4-9.18-16.61-18.8-18.48-28.59l-.12-.61-.21-.59a4.63,4.63,0,0,1-.28-1.57V130a4.55,4.55,0,0,1,.13-1.07l.32-1.35-.15-1.38a51.72,51.72,0,0,1-.31-5.52c0-13.08,5-25.89,14.76-38.09s24.22-23.47,42.55-33.13C150.07,29.19,201.55,18,256.44,18m0-8C140.31,10,46.17,59.57,46.17,120.72a59.41,59.41,0,0,0,.36,6.38,12.57,12.57,0,0,0-.36,2.94V414.42a12.6,12.6,0,0,0,.75,4.27c9,47.21,99.36,84.31,209.52,84.31S457,465.91,466,418.69a12.61,12.61,0,0,0,.75-4.27V130a12.57,12.57,0,0,0-.36-2.94,59.41,59.41,0,0,0,.36-6.38C466.71,59.57,372.57,10,256.44,10Z" transform="translate(-0.88 -10)"/><rect class="cls-1" x="32.47" y="107.52" width="444.89" height="68.34" rx="8" ry="8"/><path d="M470.24,121.52a4.05,4.05,0,0,1,4,4v52.34a4.05,4.05,0,0,1-4,4H41.35a4.05,4.05,0,0,1-4-4V125.52a4.05,4.05,0,0,1,4-4H470.24m0-8H41.35a12,12,0,0,0-12,12v52.34a12,12,0,0,0,12,12H470.24a12,12,0,0,0,12-12V125.52a12,12,0,0,0-12-12Z" transform="translate(-0.88 -10)"/><line class="cls-2" x1="93.17" y1="113.87" x2="93.17" y2="169.51"/><line class="cls-2" x1="417.95" y1="113.87" x2="417.95" y2="169.51"/><line class="cls-2" x1="254.91" y1="113.87" x2="254.91" y2="169.51"/><line class="cls-2" x1="337.72" y1="113.87" x2="337.72" y2="169.51"/><line class="cls-2" x1="173.39" y1="113.87" x2="173.39" y2="169.51"/><path d="M231.72,220.61v11.26q-46.8,0-52.33,18.12h52.33v36.15H110.12V260.2q0-19.8,28.63-29.1T231.72,220.61Zm167.16,0v11.26q-47.1,0-52.34,18.12h52.34v36.15H277.28V260.2q0-19.8,28.63-29.1T398.88,220.61Z" transform="translate(-0.88 -10)"/><path class="cls-2" d="M281.35,286c0,40.23,25.45,72.78,56.9,72.78" transform="translate(-0.88 -10)"/><path class="cls-2" d="M334.26,361.66c0,10-26,18.12-58.23,18.12" transform="translate(-0.88 -10)"/><path class="cls-2" d="M180.75,400.78c0,14.3,61.35,25.88,137.16,25.88" transform="translate(-0.88 -10)"/><path class="cls-2" d="M182.69,376.84c0,26.46-8.1,47.88-18.12,47.88" transform="translate(-0.88 -10)"/></svg>